{"title":"Enough Said 2013 BRRip XviD titler","uid":9429987,"size":754102488,"categoryP":"video","categoryS":"movies","magnet":"?xt=urn:btih:f4553442b10915874f20bdad23ec84e1e61e292c&amp;dn=Enough+Said+2013+BRRip+XviD+titler&amp;tr=udp%3A%2F%2Ftracker.openbittorrent.com%3A80&amp;tr=udp%3A%2F%2Fopen.demonii.com%3A1337&amp;tr=udp%3A%2F%2Ftracker.coppersurfer.tk%3A6969&amp;tr=udp%3A%2F%2Fexodus.desync.com%3A6969","seeders":2,"leechers":0,"uploader":"movieZ.freak","files":4,"time":1388778484,"description":"SOURCE: Enough Said 2013 720p BluRay x264 - SPARKS\n\n\n &lt;a href=&quot;\nhttp://www.imdb.com/title/tt2390361/&quot; rel=&quot;nofollow&quot; target=&quot;_NEW&quot;&gt;\nhttp://www.imdb.com/title/tt2390361/&lt;/a&gt;\n\n\n &lt;a href=&quot;\nhttp://www.rottentomatoes.com/m/enough_said_2013/&quot; rel=&quot;nofollow&quot; target=&quot;_NEW&quot;&gt;\nhttp://www.rottentomatoes.com/m/enough_said_2013/&lt;/a&gt;\n\n\n &lt;a href=&quot;\nhttp://en.wikipedia.org/wiki/Enough_Said_%28film%29&quot; rel=&quot;nofollow&quot; target=&quot;_NEW&quot;&gt;\nhttp://en.wikipedia.org/wiki/Enough_Said_%28film%29&lt;/a&gt;\n\n\n\n\n- SAMPLE: Yes\n\n\n- SUBTITLE: English\n\n\n- LANGUAGE / AUDIO: English\n\n\n\n\nSCREENSHOTS:\n-------------------    &lt;a href=&quot;\nhttp://someimage.com/hm7g&quot; rel=&quot;nofollow&quot; target=&quot;_NEW&quot;&gt;\nhttp://someimage.com/hm7g&lt;/a&gt;\n\n\n\nDIRECTOR: Nicole Holofcener\n\n\n\nCAST: Catherine Keener, James Gandolfini, Toni Collette, Julia Louis-Dreyfus, Phillip Brock, ...\n\n\nPLOT:\n-----------\nA divorced and single parent, Eva (Julia Louis Dreyfus) spends her days enjoying work as a masseuse but dreading her daughter's impending departure for college. She meets Albert (James Gandolfini) - a sweet, funny and like-minded man also facing an empty nest. As their romance quickly blossoms, Eva befriends Marianne (Catherine Keener), her new massage client. Marianne is a beautiful poet who seems &quot;almost perfect&quot; except for one prominent quality: she rags on her ex-husband way too much. Suddenly, Eva finds herself doubting her own relationship with Albert as she learns the truth about Marianne's Ex. ENOUGH SAID is a sharp, insightful comedy that humorously explores the mess that often comes with getting involved again.\n\n\n************************************\n\n- Duration: 1h 32mn\n\n- Bit rate: 913 Kbps\n\n- Res: 720 x 390\n\n- AR: 1.85:1\n\n- FPS: 23.976 fps\n\n- Audio: AC-3, 128 Kbps, 2 channels\n\n************************************\n\n\nGeneral\n-------------\nFormat : AVI\nFormat/Info : Audio Video Interleave\nFile size : 699 MiB\nDuration : 1h 32mn\nOverall bit rate : 1050 Kbps\nWriting library : VirtualDub build 35491\n\nVideo\n----------\nFormat : MPEG-4 Visual\nFormat profile : Advanced Simple@L5\nFormat settings, BVOP : 2\nFormat settings, QPel : No\nFormat settings, GMC : No warppoints\nFormat settings, Matrix : Default (H.263)\nCodec ID : XVID\nCodec ID/Hint : XviD\nDuration : 1h 32mn\nBit rate : 913 Kbps\nWidth : 720 pixels\nHeight : 390 pixels\nDisplay aspect ratio : 1.85:1\nFrame rate : 23.976 fps\nColor space : YUV\nChroma subsampling : 4:2:0\nBit depth : 8 bits\nScan type : Progressive\nCompression mode : Lossy\nBits/(Pixel*Frame) : 0.136\nStream size : 607 MiB (87%)\nWriting library : XviD 65\n\nAudio\n-------------\nFormat : AC-3\nFormat/Info : Audio Coding 3\nMode extension : CM (complete main)\nFormat settings, Endianness : Big\nCodec ID : 2000\nDuration : 1h 32mn\nBit rate mode : Constant\nBit rate : 128 Kbps\nChannel(s) : 2 channels\nChannel positions : Front: L R\nSampling rate : 48.0 KHz\nBit depth : 16 bits\nCompression mode : Lossy\nStream size : 85.1 MiB (12%)\nAlignment : Aligned on interleaves\nInterleave, duration : 42 ms (1.00 video frame)\nInterleave, preload duration : 512 ms","torrent":{"xt":"urn:btih:f4553442b10915874f20bdad23ec84e1e61e292c","amp;dn":"Enough+Said+2013+BRRip+XviD+titler","amp;tr":["udp%3A%2F%2Ftracker.openbittorrent.com%3A80","udp%3A%2F%2Fopen.demonii.com%3A1337","udp%3A%2F%2Ftracker.coppersurfer.tk%3A6969","udp%3A%2F%2Fexodus.desync.com%3A6969"],"infoHash":"f4553442b10915874f20bdad23ec84e1e61e292c","infoHashBuffer":{"type":"Buffer","data":[244,85,52,66,177,9,21,135,79,32,189,173,35,236,132,225,230,30,41,44]},"announce":[],"urlList":[]}}